
<svg version="1.1" xmlns="http://www.w3.org/2000/svg" xmlns:xlink="http://www.w3.org/1999/xlink" x="0px" y="0px"
	 viewBox="0 0 751.25 450.68">
<style type="text/css">
	.st0{fill:#182628;}
	.st1{display:#182628;}
</style>
<g id="Capa_1">
	<path class="st0" d="M446.27,4.99c0-2.76-2.23-4.99-4.99-4.99h-131.4c-33.35,0-76.02,28.35-76.58,75.02
		c-0.57,46.68-0.28,194.94-0.28,194.94s0.04,19.35,0,27.92c-0.04,8.57-8.98,18.09-23.96,18.73c-13.54,0.58-173.57,0.11-204.05,0.02
		c-2.76-0.01-5,2.23-5,4.99v47.66c0,2.76,2.23,4.99,4.98,4.99c28.74,0,173.09,0,204.07,0c57.12,0,82.44-42.37,82.44-76.38
		c0-13.49-0.07-27.85-0.07-27.85s0.08-175.62,0.03-191.99c-0.03-10.06,8.5-19.51,18.33-19.56c12.17-0.06,108.48-0.67,131.54-0.82
		c2.74-0.02,4.95-2.25,4.95-4.99V4.99z"/>
	<path class="st0" d="M320.46,104.92h120.8c2.77,0,5.01,2.24,5.01,5.01v47.72c0,2.77-2.24,5.01-5.01,5.01h-120.8
		c-2.77,0-5.01-2.24-5.01-5.01v-47.72C315.45,107.17,317.7,104.92,320.46,104.92z"/>
	<path class="st0" d="M488.42,104.92c-2.76,0-5,2.24-5,5v163.95c0,39.31,39.7,72.53,76.05,72.54c40.81,0.02,89.44,0.01,104.93,0
		c2.76,0,5-2.24,5-5v-47.76c0-2.75-2.21-4.98-4.95-5c-16.2-0.15-68.53-0.62-102.6-0.67c-15.83-0.02-20.68-14.09-20.68-20.33
		c-0.01-18.89,0.05-132.41,0.06-157.72c0-2.77-2.24-5-5-5H488.42z"/>
	<path class="st0" d="M698.44,104.92c-2.77,0-5.01,2.24-5.01,5.01c-0.02,35.58-0.11,248.94-0.14,261.41
		c-0.03,16.06-12.12,21.73-20.63,21.63c-5.56-0.06-82.11,0.51-102.52,0.66c-2.75,0.02-4.97,2.26-4.97,5.01l0.01,46.98
		c0,2.77,2.24,5.01,5,5.01c19.67,0.02,91.26,0.09,104.32-0.01c37.28-0.26,76.44-28.56,76.65-72.97c0.18-38.29,0.03-233.86,0-267.74
		c0-2.77-2.25-5-5.01-5H698.44z"/>
</g>
<g id="Capa_2" class="st1">
</g>
</svg>
