<?xml version="1.0" encoding="utf-8"?>
<!-- Generator: Adobe Illustrator 24.2.1, SVG Export Plug-In . SVG Version: 6.00 Build 0)  -->
<svg version="1.1" id="Capa_1" xmlns="http://www.w3.org/2000/svg" xmlns:xlink="http://www.w3.org/1999/xlink" x="0px" y="0px"
	 viewBox="0 0 814.1 814.1" style="enable-background:new 0 0 814.1 814.1;" xml:space="preserve">
<style type="text/css">
	.st0{fill:#182628;stroke:#000000;stroke-miterlimit:10;}
	.st1{fill:#F2F2F2;}
	.st2{display:none;}
</style>
<rect class="st0" width="814.1" height="814.1"/>
<g id="Capa_1_1_">
	
		<image style="display:none;overflow:visible;enable-background:new    ;" width="1228" height="824" xlink:href="6B1753B6.png"  transform="matrix(0.75 0 0 0.75 -74.6309 94.3224)">
	</image>
	
		<image style="display:none;overflow:visible;enable-background:new    ;" width="1228" height="824" xlink:href="6B1753BA.png"  transform="matrix(0.75 0 0 0.75 -534.1111 93.8224)">
	</image>
	<path class="st1" d="M477.7,186.4c0-2.8-2.2-5-5-5H341.3c-33.4,0-76,28.4-76.6,75c-0.6,46.7-0.3,194.9-0.3,194.9s0,19.4,0,27.9
		c0,8.6-9,18.1-24,18.7c-13.5,0.6-173.6,0.1-204.1,0c-2.8,0-5,2.2-5,5v47.7c0,2.8,2.2,5,5,5c28.7,0,173.1,0,204.1,0
		c57.1,0,82.4-42.4,82.4-76.4c0-13.5-0.1-27.9-0.1-27.9s0.1-175.6,0-192c0-10.1,8.5-19.5,18.3-19.6c12.2-0.1,108.5-0.7,131.5-0.8
		c2.7,0,5-2.3,5-5L477.7,186.4L477.7,186.4z"/>
	<path class="st1" d="M351.9,286.3h120.8c2.8,0,5,2.2,5,5v47.7c0,2.8-2.2,5-5,5H351.9c-2.8,0-5-2.2-5-5v-47.7
		C346.9,288.6,349.1,286.3,351.9,286.3z"/>
	<path class="st1" d="M519.9,286.3c-2.8,0-5,2.2-5,5v164c0,39.3,39.7,72.5,76.1,72.5c40.8,0,89.4,0,104.9,0c2.8,0,5-2.2,5-5v-47.8
		c0-2.8-2.2-5-5-5c-16.2-0.1-68.5-0.6-102.6-0.7c-15.8,0-20.7-14.1-20.7-20.3c0-18.9,0-132.4,0.1-157.7c0-2.8-2.2-5-5-5L519.9,286.3
		L519.9,286.3z"/>
	<path class="st1" d="M729.9,286.3c-2.8,0-5,2.2-5,5c0,35.6-0.1,248.9-0.1,261.4c0,16.1-12.1,21.7-20.6,21.6
		c-5.6-0.1-82.1,0.5-102.5,0.7c-2.8,0-5,2.3-5,5l0,47c0,2.8,2.2,5,5,5c19.7,0,91.3,0.1,104.3,0c37.3-0.3,76.4-28.6,76.7-73
		c0.2-38.3,0-233.9,0-267.7c0-2.8-2.3-5-5-5L729.9,286.3L729.9,286.3z"/>
</g>
<g id="Capa_2_1_" class="st2">
</g>
</svg>
